<svg xmlns="http://www.w3.org/2000/svg" xmlns:xlink="http://www.w3.org/1999/xlink" viewBox="0 0 70.5 68"><defs><style>.cls-1,.cls-12,.cls-5,.cls-6,.cls-7,.cls-9{fill:none;}.cls-2{fill:#e3ecf8;}.cls-3{clip-path:url(#clip-path);}.cls-4{fill:#fff;}.cls-12,.cls-5,.cls-6,.cls-7{stroke:#15385e;stroke-linecap:round;stroke-linejoin:round;}.cls-6{stroke-width:2px;}.cls-7{stroke-width:0.87px;}.cls-8{fill:#003764;}.cls-9{stroke:#003764;stroke-miterlimit:10;stroke-width:0.76px;}.cls-10{fill:#00a8e1;}.cls-11{fill:#3dae49;}.cls-12{stroke-width:0.5px;}</style><clipPath id="clip-path"><path class="cls-1" d="M8.5,34a28,28,0,1,0,28-28,28,28,0,0,0-28,28"/></clipPath></defs><title>EDA_icon</title><g id="Layer_2" data-name="Layer 2"><g id="Layer_1-2" data-name="Layer 1"><path class="cls-2" d="M36.5,0a34,34,0,1,1-34,34,34,34,0,0,1,34-34"/><g class="cls-3"><polyline class="cls-4" points="62.62 57.92 0.5 57.92 0.5 26.71 59.76 26.71"/><polyline class="cls-5" points="62.62 57.92 0.5 57.92 0.5 26.71 59.76 26.71"/><path class="cls-4" d="M68.38,52.83V26A5.13,5.13,0,0,0,63,21.3c-4.89,0-5.49,3.2-5.65,4.23l.14,27.3"/><path class="cls-5" d="M68.38,52.83V26A5.13,5.13,0,0,0,63,21.3c-4.89,0-5.49,3.2-5.65,4.23l.14,27.3"/><path class="cls-4" d="M62.62,48.86v6.65A6.64,6.64,0,0,1,59,55c-1.5-.77-1.63-1.86-1.35-3.45.41-2.37,3.14-3.54,5.83-3.25a5.43,5.43,0,0,1,4.82,4.29c0,.14,0,.29,0,.43a4.7,4.7,0,0,1-4.79,5H60.15"/><path class="cls-5" d="M62.62,48.86v6.65A6.64,6.64,0,0,1,59,55c-1.5-.77-1.63-1.86-1.35-3.45.41-2.37,3.14-3.54,5.83-3.25a5.43,5.43,0,0,1,4.82,4.29c0,.14,0,.29,0,.43a4.7,4.7,0,0,1-4.79,5H60.15"/></g><circle class="cls-6" cx="36.5" cy="34" r="28"/><rect class="cls-4" x="33" y="44.61" width="29" height="13.61"/><polyline class="cls-4" points="61.62 57.92 35.5 57.92 35.5 26.71 58.76 26.71"/><path class="cls-4" d="M67.38,52.83V26A5.13,5.13,0,0,0,62,21.3c-4.89,0-5.49,3.2-5.65,4.23l.14,27.3"/><path class="cls-5" d="M67.38,52.83V26A5.13,5.13,0,0,0,62,21.3c-4.89,0-5.49,3.2-5.65,4.23l.14,27.3"/><path class="cls-4" d="M61.62,48.86v6.65A6.64,6.64,0,0,1,58,55c-1.5-.77-1.63-1.86-1.35-3.45.41-2.37,3.14-3.54,5.83-3.25a5.43,5.43,0,0,1,4.82,4.29c0,.14,0,.29,0,.43a4.7,4.7,0,0,1-4.79,5H59.15"/><path class="cls-5" d="M61.62,48.86v6.65A6.64,6.64,0,0,1,58,55c-1.5-.77-1.63-1.86-1.35-3.45.41-2.37,3.14-3.54,5.83-3.25a5.43,5.43,0,0,1,4.82,4.29c0,.14,0,.29,0,.43a4.7,4.7,0,0,1-4.79,5H59.15"/><line class="cls-5" x1="61.62" y1="57.92" x2="30.56" y2="57.92"/><line class="cls-5" x1="18.96" y1="26.71" x2="56" y2="26.71"/><rect class="cls-4" x="13.44" y="3.66" width="34.65" height="47.12"/><rect class="cls-7" x="13.44" y="3.66" width="34.65" height="47.12"/><rect class="cls-7" x="16.4" y="8.19" width="28.72" height="39.32"/><line class="cls-7" x1="28.58" y1="6.15" x2="32.94" y2="6.15"/><path class="cls-8" d="M24.61,41.29H21.92a.46.46,0,0,1-.47-.46V27.64a.46.46,0,0,1,.47-.46h2.69a.46.46,0,0,1,.47.46V40.83a.46.46,0,0,1-.47.46"/><path class="cls-8" d="M29.82,41.29H27a.4.4,0,0,1-.41-.39V24a.4.4,0,0,1,.41-.4h2.81a.4.4,0,0,1,.41.4V40.9a.4.4,0,0,1-.41.39"/><path class="cls-8" d="M35,41.29H32.37a.5.5,0,0,1-.51-.49V26.66a.5.5,0,0,1,.51-.5H35a.5.5,0,0,1,.51.5V40.8a.5.5,0,0,1-.51.49"/><path class="cls-8" d="M40.16,41.35H37.48a.48.48,0,0,1-.48-.46V22a.48.48,0,0,1,.48-.46h2.68a.48.48,0,0,1,.48.46V40.89a.48.48,0,0,1-.48.46"/><polyline class="cls-9" points="21.75 22.78 28.37 17.66 33.74 21.79 39.73 16.59"/><path class="cls-10" d="M22.94,23.89a1.71,1.71,0,0,1-2.35-.29,1.58,1.58,0,0,1,.3-2.27,1.72,1.72,0,0,1,2.35.28,1.59,1.59,0,0,1-.3,2.28"/><path class="cls-10" d="M30.07,17.78a1.7,1.7,0,1,1-1.7-1.65,1.68,1.68,0,0,1,1.7,1.65"/><path class="cls-10" d="M35.36,21.61A1.7,1.7,0,1,1,33.66,20a1.67,1.67,0,0,1,1.7,1.65"/><path class="cls-10" d="M40.69,18a1.63,1.63,0,0,0,.18-2.35,1.77,1.77,0,0,0-2.44-.17,1.63,1.63,0,0,0-.17,2.35,1.76,1.76,0,0,0,2.43.17"/><path class="cls-11" d="M17,42.27a10,10,0,1,1-10,10,10,10,0,0,1,10-10"/><path class="cls-4" d="M20.34,46.21H18.25V45H15.72V46.4a3.05,3.05,0,0,0-1.34.78,3.52,3.52,0,0,0-.88,2.66c.07,2.12,2.62,3.29,2.91,3.41l.19.07c.3.08,1.43.51,1.47,1.16a1.42,1.42,0,0,1-.2,1,1.19,1.19,0,0,1-.85.18h-3.6v2.53h2.32v1.39h2.54l0-1.53a3.16,3.16,0,0,0,1.4-.77,3.66,3.66,0,0,0,.94-2.94c-.12-2-2.05-3.11-3.26-3.45-.58-.28-1.29-.84-1.3-1.14a1.18,1.18,0,0,1,.16-.81,1.27,1.27,0,0,1,.81-.19h3.34Z"/><path class="cls-12" d="M20.34,46.21H18.25V45H15.72V46.4a3.05,3.05,0,0,0-1.34.78,3.52,3.52,0,0,0-.88,2.66c.07,2.12,2.62,3.29,2.91,3.41l.19.07c.3.08,1.43.51,1.47,1.16a1.42,1.42,0,0,1-.2,1,1.19,1.19,0,0,1-.85.18h-3.6v2.53h2.32v1.39h2.54l0-1.53a3.16,3.16,0,0,0,1.4-.77,3.66,3.66,0,0,0,.94-2.94c-.12-2-2.05-3.11-3.26-3.45-.58-.28-1.29-.84-1.3-1.14a1.18,1.18,0,0,1,.16-.81,1.27,1.27,0,0,1,.81-.19h3.34Z"/></g></g></svg>